<svg width="60" height="60" viewBox="0 0 60 60" fill="none" xmlns="http://www.w3.org/2000/svg">
<path d="M18.3822 28.1996C17.5022 28.9196 17.0422 29.9329 17.0022 31.2396H19.7422C19.7956 30.7996 19.9822 30.3996 20.3022 30.0396C20.6222 29.6796 21.1022 29.4996 21.7422 29.4996C22.3822 29.4996 22.8756 29.6596 23.2222 29.9796C23.5689 30.2996 23.7422 30.7329 23.7422 31.2796C23.7422 32.5463 22.7956 33.1796 20.9022 33.1796H20.3222V35.4796H20.9022C21.9822 35.4796 22.7689 35.6529 23.2622 35.9996C23.7689 36.3329 24.0222 36.8529 24.0222 37.5596C24.0222 38.2663 23.8356 38.8129 23.4622 39.1996C23.1022 39.5729 22.5689 39.7596 21.8622 39.7596C21.1556 39.7596 20.5889 39.5663 20.1622 39.1796C19.7489 38.7796 19.5289 38.2529 19.5022 37.5996H16.7822C16.8222 39.0663 17.3156 40.1796 18.2622 40.9396C19.2089 41.6996 20.4289 42.0796 21.9222 42.0796C23.4156 42.0796 24.5889 41.6996 25.4422 40.9396C26.2956 40.1796 26.7222 39.1796 26.7222 37.9396C26.7222 36.0729 25.9222 34.8663 24.3222 34.3196V34.2396C24.8689 34.0529 25.3622 33.6729 25.8022 33.0996C26.2422 32.5129 26.4622 31.7929 26.4622 30.9396C26.4622 29.8329 26.0556 28.9196 25.2422 28.1996C24.4289 27.4663 23.3022 27.0996 21.8622 27.0996C20.4356 27.0996 19.2756 27.4663 18.3822 28.1996Z" fill="#3D4046"/>
<path fill-rule="evenodd" clip-rule="evenodd" d="M34.2949 27.4596C30.7082 27.4596 28.9149 29.8796 28.9149 34.7196C28.9149 39.5463 30.7082 41.9596 34.2949 41.9596C37.8949 41.9596 39.6949 39.5463 39.6949 34.7196C39.6949 29.8796 37.8949 27.4596 34.2949 27.4596ZM34.3149 30.0596C34.7682 30.0596 35.1616 30.1463 35.4949 30.3196C35.8282 30.4929 36.0816 30.7129 36.2549 30.9796C36.4416 31.2463 36.5882 31.5996 36.6949 32.0396C36.8016 32.4663 36.8682 32.8796 36.8949 33.2796C36.9349 33.6796 36.9549 34.1529 36.9549 34.6996C36.9549 35.2463 36.9349 35.7196 36.8949 36.1196C36.8682 36.5196 36.8016 36.9396 36.6949 37.3796C36.5882 37.8063 36.4416 38.1596 36.2549 38.4396C36.0816 38.7063 35.8282 38.9263 35.4949 39.0996C35.1616 39.2729 34.7682 39.3596 34.3149 39.3596C33.8615 39.3596 33.4682 39.2729 33.1349 39.0996C32.8015 38.9263 32.5416 38.7063 32.3549 38.4396C32.1816 38.1596 32.0416 37.8063 31.9349 37.3796C31.8282 36.9396 31.7549 36.5196 31.7149 36.1196C31.6882 35.7196 31.6749 35.2463 31.6749 34.6996C31.6749 34.1529 31.6882 33.6796 31.7149 33.2796C31.7549 32.8796 31.8282 32.4663 31.9349 32.0396C32.0416 31.5996 32.1816 31.2463 32.3549 30.9796C32.5416 30.7129 32.8015 30.4929 33.1349 30.3196C33.4682 30.1463 33.8615 30.0596 34.3149 30.0596Z" fill="#3D4046"/>
<path fill-rule="evenodd" clip-rule="evenodd" d="M15 4.5V6H40V4.5C40 2.567 41.567 1 43.5 1C45.433 1 47 2.567 47 4.5V6H54V54H1V6H8V4.5C8 2.567 9.567 1 11.5 1C13.433 1 15 2.567 15 4.5ZM47 8V9.5C47 11.433 45.433 13 43.5 13C41.567 13 40 11.433 40 9.5V8H15V9.5C15 11.433 13.433 13 11.5 13C9.567 13 8 11.433 8 9.5V8H3V16H52V8H47ZM11.5 3C10.6716 3 10 3.67157 10 4.5V9.5C10 10.3284 10.6716 11 11.5 11C12.3284 11 13 10.3284 13 9.5V4.5C13 3.67157 12.3284 3 11.5 3ZM3 18H52V52H3V18ZM42 4.5C42 3.67157 42.6716 3 43.5 3C44.3284 3 45 3.67157 45 4.5V9.5C45 10.3284 44.3284 11 43.5 11C42.6716 11 42 10.3284 42 9.5V4.5Z" fill="#3D4046"/>
<path d="M60 60V15H58V58H7V60H60Z" fill="#3D4046"/>
</svg>
