<svg width="60" height="60" viewBox="0 0 60 60" fill="none" xmlns="http://www.w3.org/2000/svg">
<path fill-rule="evenodd" clip-rule="evenodd" d="M15.2424 8.39398C14.1093 8.39398 13.024 8.84712 12.2246 9.65149C11.629 10.2516 11.2238 11.0158 11.06 11.8461C10.8962 12.6763 10.9804 13.5368 11.3023 14.3193C11.6242 15.1017 12.1697 15.7717 12.8709 16.2435C13.5723 16.7155 14.3975 16.9678 15.2424 16.9678C16.0872 16.9678 16.9125 16.7155 17.6138 16.2435C18.315 15.7717 18.8606 15.1017 19.1825 14.3193C19.5043 13.5368 19.5886 12.6763 19.4248 11.8461C19.261 11.0158 18.8557 10.2516 18.2602 9.65149C17.4607 8.84712 16.3755 8.39398 15.2424 8.39398ZM13.6433 11.0611C14.0688 10.6331 14.6441 10.394 15.2424 10.394C15.8406 10.394 16.4159 10.6331 16.8414 11.0611C17.1583 11.3806 17.3748 11.7883 17.4626 12.2332C17.5504 12.6783 17.5052 13.1395 17.3329 13.5583C17.1606 13.9771 16.8694 14.3338 16.4972 14.5842C16.1252 14.8346 15.6885 14.9678 15.2424 14.9678C14.7963 14.9678 14.3596 14.8346 13.9875 14.5842C13.6153 14.3338 13.3241 13.9771 13.1519 13.5583C12.9796 13.1395 12.9343 12.6783 13.0221 12.2332C13.1099 11.7883 13.3265 11.3806 13.6433 11.0611Z" fill="white"/>
<path fill-rule="evenodd" clip-rule="evenodd" d="M33.9792 19.5715C32.5254 18.1074 30.1681 18.1063 28.7141 19.5706C27.2601 21.0348 27.2611 23.4087 28.715 24.8728C30.1689 26.3369 32.5262 26.338 33.9802 24.8738C35.4342 23.4095 35.4331 21.0356 33.9792 19.5715ZM30.1233 20.9897C30.7984 20.3099 31.8938 20.3097 32.57 20.9907C33.2462 21.6716 33.246 22.7748 32.5709 23.4546C31.8959 24.1344 30.8005 24.1346 30.1242 23.4537C29.448 22.7727 29.4483 21.6696 30.1233 20.9897Z" fill="white"/>
<path d="M21.6629 30.0386L39.8998 29.8154L39.8756 27.8085L21.6387 28.0317L21.6629 30.0386Z" fill="white"/>
<path fill-rule="evenodd" clip-rule="evenodd" d="M34.3062 33.1598C32.8523 31.6957 30.495 31.6947 29.041 33.1589C27.587 34.6232 27.5881 36.9971 29.0419 38.4612C30.4958 39.9253 32.8531 39.9263 34.3071 38.4621C35.7611 36.9979 35.76 34.624 34.3062 33.1598ZM30.4502 34.5781C31.1253 33.8983 32.2207 33.898 32.8969 34.579C33.5731 35.26 33.5729 36.3631 32.8978 37.0429C32.2228 37.7227 31.1274 37.723 30.4512 37.042C29.775 36.361 29.7752 35.2579 30.4502 34.5781Z" fill="white"/>
<path fill-rule="evenodd" clip-rule="evenodd" d="M25.1611 0H3V22.393L34.4785 54.088L56.743 31.6773L25.1611 0ZM5 21.5686V2H24.3309L53.9213 31.6798L34.4787 51.2501L5 21.5686Z" fill="white"/>
<path d="M5.58772 28.0244L4.16889 29.434L34.4928 59.9568L55.376 38.9365L53.9571 37.527L34.4928 57.1191L5.58772 28.0244Z" fill="white"/>
</svg>
