<svg width="60" height="60" viewBox="0 0 60 60" fill="none" xmlns="http://www.w3.org/2000/svg">
<g clip-path="url(#clip0_1_1047)">
<path d="M30.6667 20.3333C30.6667 21.622 29.622 22.6667 28.3333 22.6667C27.0447 22.6667 26 21.622 26 20.3333C26 19.0447 27.0447 18 28.3333 18C29.622 18 30.6667 19.0447 30.6667 20.3333Z" fill="#3D4046"/>
<path d="M40 20.3333C40 21.622 38.9553 22.6667 37.6667 22.6667C36.378 22.6667 35.3333 21.622 35.3333 20.3333C35.3333 19.0447 36.378 18 37.6667 18C38.9553 18 40 19.0447 40 20.3333Z" fill="#3D4046"/>
<path d="M47 22.6667C48.2887 22.6667 49.3333 21.622 49.3333 20.3333C49.3333 19.0447 48.2887 18 47 18C45.7113 18 44.6667 19.0447 44.6667 20.3333C44.6667 21.622 45.7113 22.6667 47 22.6667Z" fill="#3D4046"/>
<path fill-rule="evenodd" clip-rule="evenodd" d="M37.5376 3.68959e-05C32.787 -0.00927174 28.1987 1.7431 24.6322 4.92465C21.0661 8.10582 18.7666 12.4969 18.1602 17.2734C17.5538 22.0497 18.6813 26.8883 21.3341 30.8829C23.9871 34.8779 27.985 37.756 32.5813 38.973C37.0371 40.1527 41.7547 39.6916 45.9007 37.6812L56.8497 41.5829L53.875 30.5614C56.3632 26.6529 57.4188 21.975 56.8493 17.3491C56.2609 12.5703 53.9781 8.17024 50.4242 4.97515C46.8699 1.77968 42.2882 0.00934553 37.5376 3.68959e-05ZM25.9636 6.41711C29.1655 3.56072 33.2794 1.9917 37.5337 2.00003C41.788 2.00837 45.8959 3.5935 49.0871 6.46246C52.2787 9.33179 54.3343 13.2888 54.8642 17.5934C55.3942 21.8982 54.3613 26.2502 51.962 29.8333L51.7089 30.2112L53.9237 38.4171L45.7636 35.5092L45.3788 35.7066C41.5785 37.6564 37.2108 38.1298 33.0932 37.0396C28.9752 35.9493 25.3856 33.3686 23.0001 29.7765C20.6144 26.184 19.598 21.8279 20.1443 17.5253C20.6905 13.2228 22.7612 9.27388 25.9636 6.41711Z" fill="#3D4046"/>
<path d="M15.0781 23H4V51H9V60.2091L19.4861 51H49V42H47V49H18.7326L11 55.7909V49H6V25H15.0781V23Z" fill="#3D4046"/>
<path d="M17 32H11V30H17V32Z" fill="#3D4046"/>
<path d="M11 38H21V36H11V38Z" fill="#3D4046"/>
<path d="M28.9985 44.03L10.9985 44L11.0019 42L29.0018 42.03L28.9985 44.03Z" fill="#3D4046"/>
</g>
<defs>
<clipPath id="clip0_1_1047">
<rect width="60" height="60" fill="white"/>
</clipPath>
</defs>
</svg>
