<svg width="24" height="24" viewBox="0 0 24 24" fill="none" xmlns="http://www.w3.org/2000/svg">
<path d="M23.948 0.042C23.535 0.014 23.131 0 22.734 0C14.134 0 9.237 6.557 7.456 11.833L12.183 16.56C17.611 14.616 24 9.9 24 1.392C24 0.952 23.983 0.502 23.948 0.042ZM12.671 14.22L9.788 11.337C11.009 8.478 14.479 2.392 21.987 2.017C21.736 7.792 17.946 11.949 12.671 14.22ZM18.142 15.758C17.595 16.131 17.052 16.468 16.514 16.769C16.327 17.66 15.852 18.611 15.163 19.421C15.161 18.845 15.001 18.265 14.72 17.683C14.225 17.908 13.754 18.101 13.306 18.271C13.966 19.98 13.294 21.242 12.391 22.425C13.687 22.327 15.047 21.693 16.119 20.62C17.274 19.465 18.086 17.797 18.142 15.758ZM6.322 9.289C5.743 9.009 5.164 8.851 4.59 8.848C5.393 8.167 6.334 7.695 7.216 7.503C7.53 6.951 7.883 6.406 8.255 5.87C6.216 5.925 4.547 6.737 3.391 7.893C2.32 8.964 1.685 10.326 1.587 11.621C2.771 10.717 4.033 10.045 5.742 10.707C5.915 10.236 6.108 9.763 6.322 9.289ZM14.06 9.952C13.669 9.561 13.669 8.929 14.06 8.538C14.451 8.147 15.083 8.147 15.474 8.538C15.865 8.93 15.865 9.562 15.474 9.953C15.083 10.344 14.45 10.343 14.06 9.952ZM19.009 5.001C18.229 4.221 16.962 4.221 16.181 5.001C15.4 5.782 15.4 7.05 16.181 7.83C16.962 8.611 18.229 8.611 19.01 7.83C19.79 7.05 19.79 5.783 19.009 5.001ZM17.101 6.912C16.828 6.639 16.828 6.194 17.101 5.922C17.372 5.649 17.818 5.649 18.091 5.922C18.363 6.194 18.362 6.639 18.091 6.912C17.817 7.184 17.373 7.184 17.101 6.912ZM10.354 17.562C8.862 21.372 4.551 23.77 0 24C0.219 19.711 2.657 15.324 6.64 13.847L7.445 14.653C3.114 17.408 2.792 19.999 2.78 21.228C4.048 21.213 6.834 20.884 9.558 16.764L10.354 17.562Z" fill="#3D3D3D"/>
</svg>
